<svg width="30" height="30" viewBox="0 0 30 30" fill="none" xmlns="http://www.w3.org/2000/svg">
<rect x="0.5" y="0.5" width="29" height="29" rx="4.5" stroke="#FFA333"/>
<g opacity="0.7">
<path fill-rule="evenodd" clip-rule="evenodd" d="M16.9624 13.3225L18.0118 12.2508L17.9782 12.2178L17.5402 11.8398C17.2976 11.6303 17.202 11.4565 17.1663 11.3321C17.1352 11.2236 17.1131 11.0315 17.2474 10.6953C17.5366 9.97119 17.8524 9.07302 18.0657 8.42052L16.6399 7.95444C16.4335 8.58608 16.1285 9.45265 15.8544 10.139C15.375 11.3393 15.752 12.2777 16.5601 12.9752L16.9624 13.3225ZM16.9649 13.3302C16.9649 13.3302 16.9653 13.3292 16.9647 13.3268C16.9641 13.3242 16.9624 13.3225 16.9624 13.3225C18.0118 12.2508 18.0121 12.2511 18.0124 12.2514L18.0131 12.252L18.0143 12.2532L18.0167 12.2556L18.0217 12.2605L18.0317 12.2706C18.0385 12.2775 18.0455 12.2847 18.0526 12.2923C18.0668 12.3073 18.0819 12.3239 18.0976 12.342C18.1284 12.3777 18.1638 12.422 18.2 12.4748C18.2681 12.574 18.3643 12.7393 18.4203 12.9645C18.4547 13.1027 18.4741 13.2642 18.4609 13.4414C18.4543 13.5294 18.4398 13.618 18.4171 13.7059C18.4057 13.7497 18.3925 13.7927 18.3774 13.8348C18.3731 13.8469 18.3687 13.8589 18.3641 13.8708C17.8524 15.2036 17.0005 17.1859 14.5233 18.3151L13.5711 18.7492L12.6848 17.8536C12.3905 17.5563 11.9289 17.4711 11.4581 17.764L9.63993 19.0469C9.33202 19.2642 9.11849 19.5669 9.037 19.8578C8.95855 20.138 9.00256 20.3889 9.17414 20.599C9.52393 21.0274 10.0252 21.4313 10.7459 21.6205C11.7622 21.8872 12.8334 21.721 13.8827 21.3089C14.9317 20.8969 15.9098 20.2577 16.7033 19.6508C17.8757 18.7542 20.3508 16.617 21.524 12.6295C21.9648 11.1313 21.7032 9.93708 21.2315 9.08538C20.7415 8.20065 20.0451 7.71425 19.6714 7.59992C19.1907 7.4529 18.8728 7.48552 18.6649 7.58547C18.4642 7.68191 18.2344 7.90438 18.0657 8.42052L16.6399 7.95444C16.8937 7.17804 17.3396 6.55822 18.015 6.23354C18.6773 5.91521 19.4128 5.95222 20.1101 6.16553C20.9309 6.41661 21.9072 7.20934 22.5437 8.35862C23.2027 9.54848 23.5211 11.1559 22.963 13.0529C21.6625 17.4732 18.9091 19.8523 17.6145 20.8423C16.764 21.4928 15.6608 22.2221 14.4311 22.7051C13.2016 23.188 11.7909 23.4455 10.3651 23.0713C9.27651 22.7856 8.51883 22.168 8.01234 21.5478C7.48959 20.9077 7.40157 20.1354 7.59258 19.4533C7.77754 18.7928 8.21872 18.2139 8.77517 17.8213L10.6226 16.5178C11.6447 15.8571 12.9104 15.9492 13.751 16.7985L13.9011 16.9503C15.8157 16.0775 16.4837 14.5841 16.9649 13.3302Z" fill="#FFA333"/>
</g>
</svg>
