<svg width="30" height="30" viewBox="0 0 30 30" fill="none" xmlns="http://www.w3.org/2000/svg">
<rect x="0.5" y="0.5" width="29" height="29" rx="4.5" stroke="#FFA333"/>
<g opacity="0.7">
<path fill-rule="evenodd" clip-rule="evenodd" d="M7.91981 7.60345H6.07764V6.10345H7.91981C9.16245 6.10345 10.1698 7.11081 10.1698 8.35345V9.46552H20.8707C22.1134 9.46552 23.1207 10.4729 23.1207 11.7155V14.1106C23.1207 15.1449 22.4156 16.046 21.4115 16.2947L11.98 18.6301C13.0586 18.9896 13.8363 20.0074 13.8363 21.2069C13.8363 22.7066 12.6205 23.9224 11.1208 23.9224C9.62105 23.9224 8.40527 22.7066 8.40527 21.2069C8.40527 20.0591 9.11741 19.0776 10.124 18.6802C9.28818 18.3624 8.66981 17.556 8.66981 16.5747V8.35345C8.66981 7.93924 8.33402 7.60345 7.91981 7.60345ZM10.1698 10.9655V16.5747C10.1698 17.0619 10.6271 17.4198 11.1001 17.3027L21.051 14.8386C21.3857 14.7558 21.6207 14.4554 21.6207 14.1106V11.7155C21.6207 11.3013 21.285 10.9655 20.8707 10.9655H10.1698ZM11.1208 22.4224C11.7921 22.4224 12.3363 21.8782 12.3363 21.2069C12.3363 20.5356 11.7921 19.9914 11.1208 19.9914C10.4495 19.9914 9.90527 20.5356 9.90527 21.2069C9.90527 21.8782 10.4495 22.4224 11.1208 22.4224ZM21.6465 21.2069C21.6465 21.8782 21.1023 22.4224 20.431 22.4224C19.7597 22.4224 19.2155 21.8782 19.2155 21.2069C19.2155 20.5356 19.7597 19.9914 20.431 19.9914C21.1023 19.9914 21.6465 20.5356 21.6465 21.2069ZM23.1465 21.2069C23.1465 22.7066 21.9307 23.9224 20.431 23.9224C18.9312 23.9224 17.7155 22.7066 17.7155 21.2069C17.7155 19.7071 18.9312 18.4914 20.431 18.4914C21.9307 18.4914 23.1465 19.7071 23.1465 21.2069Z" fill="#FFA333"/>
</g>
</svg>
