<svg width="30" height="30" viewBox="0 0 30 30" fill="none" xmlns="http://www.w3.org/2000/svg">
<rect x="0.5" y="0.5" width="29" height="29" rx="4.5" stroke="#FFA333"/>
<g opacity="0.7">
<path fill-rule="evenodd" clip-rule="evenodd" d="M18.4914 11.8966C18.4914 13.8248 16.9283 15.3879 15.0001 15.3879C13.0718 15.3879 11.5087 13.8248 11.5087 11.8966C11.5087 9.96832 13.0718 8.40518 15.0001 8.40518C16.9283 8.40518 18.4914 9.96832 18.4914 11.8966ZM20.0432 11.8966C20.0432 14.6818 17.7853 16.9397 15.0001 16.9397C12.2148 16.9397 9.95695 14.6818 9.95695 11.8966C9.95695 9.11133 12.2148 6.85345 15.0001 6.85345C17.7853 6.85345 20.0432 9.11133 20.0432 11.8966ZM9.18109 18.4914C7.4671 18.4914 6.07764 19.8808 6.07764 21.5948V23.9224H7.62936V21.5948C7.62936 20.7378 8.32409 20.0431 9.18109 20.0431H20.819C21.676 20.0431 22.3707 20.7378 22.3707 21.5948V23.9224H23.9225V21.5948C23.9225 19.8808 22.533 18.4914 20.819 18.4914H9.18109Z" fill="#FFA333"/>
</g>
</svg>
